<svg id="visual" viewBox="0 0 900 600" width="900" height="600" xmlns="http://www.w3.org/2000/svg" xmlns:xlink="http://www.w3.org/1999/xlink" version="1.1"><path d="M0 277L25 287.7C50 298.3 100 319.7 150 322C200 324.3 250 307.7 300 305.5C350 303.3 400 315.7 450 320.7C500 325.7 550 323.3 600 313.3C650 303.3 700 285.7 750 282C800 278.3 850 288.7 875 293.8L900 299L900 601L875 601C850 601 800 601 750 601C700 601 650 601 600 601C550 601 500 601 450 601C400 601 350 601 300 601C250 601 200 601 150 601C100 601 50 601 25 601L0 601Z" fill="#EBB9DF" stroke-linecap="round" stroke-linejoin="miter"></path></svg>